<?xml version="1.0" encoding="UTF-8"?><svg xmlns="http://www.w3.org/2000/svg" xmlns:xlink="http://www.w3.org/1999/xlink" height="91.2" preserveAspectRatio="xMidYMid meet" version="1.0" viewBox="0.0 -0.2 122.7 91.2" width="122.7" zoomAndPan="magnify"><g id="change1_1"><path d="M33.4,60.1c1-1.1,1.8-2.1,2.7-3c3-2.9,5.8-6,9-8.6c3.4-2.9,8.4-2.1,11.5,1.2c0.8,0.8,2.2,1.1,3.4,1.7 c0.5,1.3-0.7,1.9-1.5,2.7c-7.2,6.8-12.7,14.8-17.6,23.4c-1.8,3.3-3.1,6.9-4.5,10.4c-1.1,2.8-1.2,3.1-4.2,2.9 c-5.4-0.4-10-2.3-13.4-6.8C13,75.8,6.6,68.2,2.2,59.2c-0.7-1.5-1.2-3-2.2-5.4c4.4,0.8,8,0.8,10.3,4.3c1.4,2.1,2.9,4.3,4.8,7.2 c0.5-3.1,0.8-5.2,1.2-7.3c2.9-15.8,9.2-30.1,21.2-41C48.4,7,61.2,0.2,76.5,0c12.9-0.2,23.9,4.9,33.5,13c3.9,3.3,7.1,7.2,10.6,11 c0.9,1,1.4,2.3,2.1,3.5c-0.3,0.3-0.5,0.5-0.8,0.8c-1.6-1-3.2-1.9-4.7-3c-0.9-0.7-1.7-1.7-2.4-2.5c-10-11.3-22.6-14.3-36.9-11.3 c-10.9,2.3-20,8.2-27.5,16.3c-8,8.5-13.5,18.5-16.7,29.8c-0.2,0.5-0.3,1-0.3,1.5C33.1,59.2,33.3,59.4,33.4,60.1z" fill="inherit"/></g></svg>